<svg width="29" height="35" viewBox="0 0 29 35" fill="none" xmlns="http://www.w3.org/2000/svg">
<path fill-rule="evenodd" clip-rule="evenodd" d="M14.3917 8.11887C14.1296 3.92536 17.4929 0.430776 21.4677 0.125C21.9918 4.93006 17.0124 8.59937 14.3917 8.11887ZM23.8263 32.6247C21.9918 34.372 19.9389 34.1099 18.0607 33.3236C16.0078 32.4499 14.1296 32.4499 11.9456 33.3236C9.23753 34.4593 7.79616 34.1535 6.18004 32.6247C-2.99255 23.1893 -1.63852 8.73042 8.75708 8.20623C11.2468 8.33728 13.0377 9.64775 14.5227 9.69144C16.7504 9.21093 18.8469 7.94414 21.2493 8.11887C24.0884 8.33728 26.185 9.47302 27.6264 11.5261C21.7735 15.0644 23.1275 22.7961 28.5 24.9803C27.5391 27.8196 26.1413 30.5716 23.8263 32.6247Z" fill="#48455E"/>
</svg>
