<svg width="108" height="37" viewBox="0 0 108 37" fill="none" xmlns="http://www.w3.org/2000/svg">
<g clip-path="url(#clip0_19_1116)">
<path d="M45.9596 19.2038C45.9596 24.2742 41.993 28.0106 37.125 28.0106C32.2571 28.0106 28.2905 24.2742 28.2905 19.2038C28.2905 14.0976 32.2571 10.397 37.125 10.397C41.993 10.397 45.9596 14.0976 45.9596 19.2038ZM42.0922 19.2038C42.0922 16.0353 39.7933 13.8673 37.125 13.8673C34.4568 13.8673 32.1578 16.0353 32.1578 19.2038C32.1578 22.3406 34.4568 24.5403 37.125 24.5403C39.7933 24.5403 42.0922 22.3366 42.0922 19.2038Z" fill="#48455E"/>
<path d="M65.0184 19.2038C65.0184 24.2742 61.0517 28.0106 56.1838 28.0106C51.3159 28.0106 47.3492 24.2742 47.3492 19.2038C47.3492 14.1016 51.3159 10.397 56.1838 10.397C61.0517 10.397 65.0184 14.0976 65.0184 19.2038ZM61.151 19.2038C61.151 16.0353 58.852 13.8673 56.1838 13.8673C53.5156 13.8673 51.2166 16.0353 51.2166 19.2038C51.2166 22.3406 53.5156 24.5403 56.1838 24.5403C58.852 24.5403 61.151 22.3366 61.151 19.2038Z" fill="#48455E"/>
<path d="M83.2831 10.9291V26.74C83.2831 33.2438 79.4475 35.9001 74.9131 35.9001C70.6447 35.9001 68.0757 33.0453 67.1069 30.7106L70.474 29.3089C71.0735 30.7423 72.5427 32.4338 74.9091 32.4338C77.8116 32.4338 79.6103 30.6431 79.6103 27.272V26.0054H79.4753C78.6097 27.0735 76.9421 28.0066 74.8377 28.0066C70.4343 28.0066 66.4001 24.171 66.4001 19.2356C66.4001 14.2644 70.4343 10.397 74.8377 10.397C76.9381 10.397 78.6057 11.3301 79.4753 12.3664H79.6103V10.9331H83.2831V10.9291ZM79.8843 19.2356C79.8843 16.1345 77.8156 13.8673 75.1831 13.8673C72.5149 13.8673 70.2794 16.1345 70.2794 19.2356C70.2794 22.3048 72.5149 24.5403 75.1831 24.5403C77.8156 24.5403 79.8843 22.3048 79.8843 19.2356Z" fill="#48455E"/>
<path d="M89.3382 1.66174V27.4706H85.5662V1.66174H89.3382Z" fill="#48455E"/>
<path d="M104.037 22.1023L107.039 24.1035C106.07 25.5369 103.736 28.0066 99.7015 28.0066C94.6985 28.0066 90.9622 24.1392 90.9622 19.1998C90.9622 13.9626 94.7303 10.3931 99.2687 10.3931C103.839 10.3931 106.074 14.0301 106.805 15.9956L107.206 16.9962L95.4331 21.872C96.3344 23.6389 97.736 24.5403 99.7015 24.5403C101.671 24.5403 103.037 23.5714 104.037 22.1023ZM94.7978 18.9338L102.668 15.666C102.235 14.5662 100.932 13.7998 99.3997 13.7998C97.4343 13.7998 94.6985 15.535 94.7978 18.9338Z" fill="#48455E"/>
<path d="M14.0122 16.9128V13.1765H26.6029C26.726 13.8277 26.7896 14.598 26.7896 15.4318C26.7896 18.235 26.0232 21.7013 23.5535 24.171C21.1513 26.6725 18.0821 28.0066 14.0162 28.0066C6.48 28.0066 0.142944 21.8681 0.142944 14.3319C0.142944 6.79576 6.48 0.657227 14.0162 0.657227C18.1853 0.657227 21.1553 2.29311 23.3868 4.42531L20.7503 7.06179C19.1501 5.5609 16.9822 4.39355 14.0122 4.39355C8.50897 4.39355 4.20486 8.8287 4.20486 14.3319C4.20486 19.8352 8.50897 24.2703 14.0122 24.2703C17.5818 24.2703 19.6147 22.8369 20.9171 21.5346C21.9732 20.4784 22.6681 18.9696 22.9421 16.9088L14.0122 16.9128Z" fill="#48455E"/>
</g>
<defs>
<clipPath id="clip0_19_1116">
<rect width="108" height="36.5294" fill="white" transform="translate(0 0.470581)"/>
</clipPath>
</defs>
</svg>
