<svg width="119" height="25" viewBox="0 0 119 25" fill="none" xmlns="http://www.w3.org/2000/svg">
<g clip-path="url(#clip0_4166:8269)">
<path d="M41.99 14.3993L41.281 16.3761H41.2219C41.0406 15.7144 40.8102 15.0666 40.5326 14.4381L36.7314 5.03884H33.009V20.0195H35.4709V10.7753C35.4709 10.1939 35.4709 9.53497 35.4512 8.72101C35.4315 8.31404 35.3922 8.00396 35.3725 7.7714H35.4315C35.5178 8.20571 35.6363 8.63321 35.7861 9.05047L40.3553 19.9807H42.0885L46.6184 8.95357C46.7376 8.56481 46.8362 8.17022 46.9139 7.7714H46.9729C46.9139 8.87605 46.8745 9.86442 46.8548 10.4652V19.9613H49.4742V5.00008H45.8897L41.99 14.3993ZM51.9558 9.22489H54.5162V19.9613H51.9558V9.22489ZM53.2557 4.69001C52.8517 4.68622 52.4624 4.83943 52.1725 5.11636C52.0293 5.24983 51.9153 5.4106 51.8374 5.58886C51.7595 5.76712 51.7193 5.95913 51.7193 6.15318C51.7193 6.34723 51.7595 6.53925 51.8374 6.71751C51.9153 6.89577 52.0293 7.05654 52.1725 7.19001C52.4646 7.46131 52.8541 7.60766 53.2557 7.59698C53.6562 7.60174 54.0436 7.45622 54.3389 7.19001C54.4844 7.06038 54.6 6.9017 54.6782 6.72457C54.7563 6.54744 54.7951 6.35594 54.7919 6.16287C54.7928 5.96728 54.7531 5.77356 54.6752 5.5936C54.5973 5.41365 54.4829 5.25125 54.3389 5.11636C54.1988 4.97466 54.0299 4.86348 53.8433 4.79004C53.6567 4.7166 53.4565 4.68252 53.2557 4.69001V4.69001ZM63.5957 9.12799C63.123 9.02857 62.6413 8.97662 62.158 8.97295C61.0712 8.95114 59.9978 9.21185 59.0461 9.72877C58.1729 10.2093 57.4611 10.9299 56.9978 11.8024C56.5079 12.7636 56.2644 13.8281 56.2888 14.9032C56.2784 15.8693 56.5154 16.8224 56.9781 17.6745C57.4146 18.4877 58.0862 19.1554 58.9082 19.5931C59.7716 20.0551 60.742 20.2888 61.7247 20.2714C62.8012 20.3011 63.867 20.054 64.8168 19.5543L64.8365 19.535V17.2094L64.738 17.2869C64.3618 17.5639 63.9429 17.7798 63.4972 17.9264C63.106 18.0695 62.6934 18.1481 62.2761 18.159C61.252 18.159 60.4445 17.8683 59.8733 17.2288C59.3021 16.5892 58.987 15.7559 58.987 14.69C58.987 13.5854 59.2824 12.7133 59.893 12.0737C60.2009 11.754 60.5744 11.5023 60.9886 11.3352C61.4028 11.1682 61.8484 11.0896 62.2958 11.1047C63.1766 11.1168 64.0311 11.4016 64.738 11.9187L64.8365 11.9962V9.53497L64.8168 9.51559C64.4252 9.34337 64.0158 9.21341 63.5957 9.12799V9.12799ZM72.0449 9.05047C71.4136 9.04535 70.8004 9.25791 70.3118 9.65125C69.8785 10.0001 69.583 10.504 69.327 11.1047H69.3073V9.22489H66.7469V19.9613H69.3073V14.4768C69.3073 13.5466 69.5043 12.7714 69.9376 12.2094C70.1178 11.9401 70.3635 11.7192 70.6524 11.567C70.9413 11.4147 71.2642 11.3357 71.592 11.3373C71.8498 11.3541 72.1063 11.3865 72.3601 11.4342C72.5763 11.4846 72.7826 11.5697 72.9706 11.6861L73.0691 11.7636V9.24427L73.01 9.22489C72.7088 9.08659 72.3765 9.02654 72.0449 9.05047V9.05047ZM79.0171 8.99233C77.2248 8.99233 75.787 9.51559 74.7826 10.5427C73.7781 11.5699 73.2661 12.9846 73.2661 14.7675C73.2661 16.4342 73.7781 17.7908 74.7629 18.7792C75.7476 19.7675 77.0869 20.252 78.761 20.252C80.5139 20.252 81.9123 19.7288 82.9167 18.6823C83.9212 17.6357 84.4332 16.2404 84.4332 14.5156C84.4332 12.7908 83.9606 11.4536 82.9955 10.4652C82.0698 9.47683 80.7108 8.99233 79.0171 8.99233V8.99233ZM81.0654 17.2481C80.5927 17.8489 79.8443 18.1396 78.9186 18.1396C77.9929 18.1396 77.2445 17.8489 76.7127 17.2094C76.1809 16.6086 75.9249 15.7365 75.9249 14.6319C75.9249 13.4885 76.2006 12.6164 76.7127 11.9962C77.2248 11.3761 77.9732 11.066 78.8989 11.066C79.8246 11.066 80.5139 11.3567 81.026 11.9574C81.538 12.5582 81.8138 13.4303 81.8138 14.5737C81.7744 15.7365 81.5577 16.6474 81.0654 17.2481V17.2481ZM90.1449 13.6823C89.3373 13.3528 88.8253 13.1009 88.5889 12.8877C88.4864 12.7786 88.4074 12.6503 88.3566 12.5104C88.3059 12.3705 88.2844 12.222 88.2935 12.0737C88.2898 11.9206 88.3258 11.769 88.3982 11.6334C88.4706 11.4977 88.5769 11.3825 88.7071 11.2985C89.0412 11.0886 89.4338 10.9869 89.8297 11.0078C90.2763 11.0153 90.72 11.0804 91.1493 11.2016C91.5599 11.3044 91.9474 11.4819 92.2916 11.7249L92.3901 11.8024V9.43807L92.331 9.41869C91.9539 9.27658 91.5651 9.16636 91.169 9.08923C90.7527 9.01733 90.3312 8.97845 89.9085 8.97295C88.6874 8.97295 87.683 9.26365 86.8951 9.90318C86.5239 10.1775 86.2247 10.5353 86.0225 10.9466C85.8204 11.3579 85.7211 11.8108 85.7331 12.2675C85.7189 12.72 85.8064 13.17 85.9892 13.5854C86.1739 13.9738 86.4428 14.3178 86.777 14.5931C87.2608 14.9509 87.7906 15.2441 88.3526 15.4652C88.9434 15.7171 89.3964 15.9109 89.6722 16.066C89.8905 16.1927 90.0895 16.3493 90.263 16.5311C90.3729 16.7124 90.4276 16.9209 90.4206 17.1319C90.4206 17.8489 89.8691 18.1978 88.7465 18.1978C88.263 18.1907 87.7839 18.1056 87.3284 17.9458C86.8159 17.7779 86.3314 17.5362 85.8907 17.2288L85.7922 17.1512V19.6125L85.8513 19.6319C86.2961 19.8165 86.7577 19.9593 87.23 20.0582C87.7164 20.1573 88.2106 20.2157 88.7071 20.2326C90.0267 20.2326 91.1099 19.9419 91.878 19.3024C92.2612 19.0187 92.57 18.6492 92.779 18.2245C92.9879 17.7998 93.0909 17.3322 93.0794 16.8605C93.1075 16.1913 92.883 15.5356 92.4492 15.0195C91.7629 14.4494 90.9839 13.9973 90.1449 13.6823V13.6823ZM99.8349 8.99233C98.0426 8.99233 96.6049 9.51559 95.6004 10.5427C94.596 11.5699 94.0839 12.9846 94.0839 14.7675C94.0839 16.4342 94.596 17.7908 95.5807 18.7792C96.5655 19.7675 97.9048 20.252 99.5789 20.252C101.332 20.252 102.73 19.7288 103.735 18.6823C104.739 17.6357 105.251 16.2404 105.251 14.5156C105.251 12.7908 104.778 11.4536 103.813 10.4652C102.888 9.47683 101.529 8.99233 99.8349 8.99233V8.99233ZM101.864 17.2481C101.391 17.8489 100.642 18.1396 99.7167 18.1396C98.791 18.1396 98.0426 17.8489 97.5109 17.2094C96.9791 16.6086 96.7231 15.7365 96.7231 14.6319C96.7231 13.4885 96.9988 12.6164 97.5109 11.9962C98.0229 11.3761 98.7714 11.066 99.697 11.066C100.583 11.066 101.312 11.3567 101.824 11.9574C102.336 12.5582 102.612 13.4303 102.612 14.5737C102.612 15.7171 102.356 16.6474 101.864 17.2481V17.2481ZM118.939 11.2985V9.22489H116.359V6.0466L116.28 6.06597L113.838 6.78303L113.779 6.80241V9.22489H109.919V7.8683C109.919 7.24814 110.076 6.76365 110.352 6.45357C110.506 6.29448 110.693 6.17041 110.9 6.09006C111.108 6.00971 111.331 5.97503 111.554 5.98846C111.948 5.99442 112.337 6.08017 112.696 6.24039L112.794 6.29853V4.10861L112.735 4.08923C111.579 3.75691 110.338 3.85345 109.249 4.36055C108.655 4.67356 108.169 5.15227 107.851 5.73652C107.505 6.34592 107.328 7.03451 107.339 7.73264V9.22489H105.547V11.2792H107.339V19.9613H109.919V11.2985H113.779V16.8218C113.779 19.0892 114.862 20.2326 117.029 20.2326C117.392 20.2227 117.755 20.1838 118.112 20.1164C118.39 20.0644 118.662 19.9799 118.92 19.8644L118.939 19.845V17.7714L118.841 17.8489C118.679 17.9566 118.499 18.0353 118.309 18.0815C118.143 18.1315 117.971 18.1576 117.797 18.159C117.285 18.159 116.93 18.0427 116.674 17.752C116.418 17.4613 116.32 17.035 116.32 16.3761V11.2985H118.939Z" fill="#48455E"/>
<path d="M0 0H12.0732V11.8798H0V0Z" fill="#48455E"/>
<path d="M13.3335 0H25.4067V11.8798H13.3335V0Z" fill="#48455E"/>
<path d="M0 13.1201H12.0732V25H0V13.1201Z" fill="#48455E"/>
<path d="M13.3335 13.1201H25.4067V25H13.3335V13.1201Z" fill="#48455E"/>
</g>
<defs>
<clipPath id="clip0_4166:8269">
<rect width="118.939" height="25" fill="white"/>
</clipPath>
</defs>
</svg>
