<svg width="75" height="52" viewBox="0 0 75 52" fill="none" xmlns="http://www.w3.org/2000/svg">
<g clip-path="url(#clip0_4166:8250)">
<path d="M29.2535 22.0638C29.0119 22.0491 28.7708 22.0993 28.5551 22.2092C28.3393 22.3191 28.1566 22.4847 28.0259 22.6889C27.8384 22.9981 27.7204 23.3447 27.6802 23.7043H30.7533C30.7491 23.3483 30.6555 22.999 30.4811 22.6889C30.353 22.4822 30.1708 22.3146 29.9544 22.2044C29.7379 22.0942 29.4955 22.0456 29.2535 22.0638Z" fill="#48455E"/>
<path d="M63.6434 22.064C63.4018 22.0494 63.1607 22.0995 62.9449 22.2094C62.7292 22.3193 62.5465 22.4849 62.4158 22.6891C62.2283 22.9984 62.1103 23.3449 62.0701 23.7045H65.1323C65.124 23.3473 65.0257 22.998 64.8465 22.6891C64.7204 22.4862 64.5421 22.3211 64.3304 22.2112C64.1187 22.1012 63.8814 22.0503 63.6434 22.064Z" fill="#48455E"/>
<path d="M46.5218 22.0886C46.2821 22.0708 46.042 22.117 45.8259 22.2225C45.6098 22.328 45.4254 22.489 45.2914 22.6891C44.9969 23.2132 44.8581 23.8109 44.8913 24.4115C44.8589 25.0139 44.9976 25.613 45.2914 26.1394C45.4247 26.3405 45.6088 26.5026 45.825 26.609C46.0411 26.7155 46.2816 26.7626 46.5218 26.7454C46.7629 26.7635 47.0044 26.717 47.2216 26.6105C47.4388 26.504 47.6238 26.3414 47.7576 26.1394C48.056 25.6147 48.1969 25.0146 48.1631 24.4115C48.1977 23.8101 48.0567 23.2115 47.7576 22.6891C47.6232 22.4881 47.4379 22.3266 47.2207 22.2211C47.0036 22.1156 46.7624 22.0698 46.5218 22.0886V22.0886Z" fill="#48455E"/>
<path d="M20.8153 24.6627C20.4295 24.6043 20.0403 24.5715 19.6503 24.5645C18.7738 24.5645 18.4036 24.8756 18.4036 24.8756C18.2748 24.9706 18.1723 25.0968 18.1056 25.2425C18.039 25.3881 18.0104 25.5484 18.0225 25.7082C18.0116 25.9031 18.056 26.0971 18.1504 26.2678C18.2137 26.3701 18.2982 26.4576 18.3981 26.5243C18.3981 26.5243 18.7819 26.8273 19.6557 26.7755C20.0452 26.7494 20.4326 26.6975 20.8153 26.6199V24.6627Z" fill="#48455E"/>
<path d="M58.1118 7.04437C55.886 7.03815 53.684 7.50323 51.6498 8.4092C50.5204 6.35819 48.8652 4.64696 46.8552 3.4525C44.8453 2.25803 42.5537 1.62369 40.2173 1.61508C38.46 1.61603 36.7211 1.9751 35.1063 2.67051C33.4915 3.36591 32.0345 4.38313 30.8237 5.66043C28.6945 2.85795 25.6161 0.933717 22.1694 0.250737C18.7227 -0.432243 15.146 0.173244 12.1138 1.95298C9.08168 3.73271 6.80382 6.56365 5.70995 9.91175C4.61608 13.2598 4.78182 16.8936 6.1759 20.1276C4.28749 21.2375 2.72268 22.8251 1.63789 24.7316C0.553091 26.638 -0.0136807 28.7967 -0.00577785 30.9917C-0.00577785 37.9114 5.52807 43.5208 12.3576 43.5208C13.2122 43.5192 14.0643 43.4277 14.8999 43.2478C15.8214 45.7626 17.4757 47.9414 19.6478 49.5013C21.82 51.0612 24.4096 51.9301 27.0805 51.9952C29.7514 52.0602 32.3801 51.3184 34.6252 49.8661C36.8703 48.4138 38.6281 46.318 39.6702 43.8511C42.3516 45.1626 45.4319 45.3951 48.2788 44.5006C51.1256 43.6062 53.523 41.6528 54.9788 39.0414C56.0145 39.2523 57.0686 39.3584 58.1254 39.3581C66.9447 39.3581 74.0955 32.1245 74.0955 23.2012C74.0955 14.278 66.9311 7.04437 58.1118 7.04437ZM15.8635 25.8053C15.8635 27.1101 14.919 27.9208 13.4001 27.9208C12.6295 27.9403 11.8668 27.7617 11.1844 27.4022C11.038 27.3249 10.8963 27.2392 10.7598 27.1456C10.7462 27.1237 10.6836 27.0992 10.7298 26.9763L11.0292 26.1411C11.0329 26.1198 11.0422 26.1 11.0561 26.0836C11.0701 26.0672 11.0881 26.0549 11.1085 26.0479C11.1288 26.041 11.1506 26.0396 11.1716 26.044C11.1926 26.0484 11.2121 26.0583 11.2279 26.0728C11.3123 26.1247 11.3722 26.1684 11.4784 26.2311C12.0629 26.6045 12.7425 26.8008 13.4355 26.7962C14.097 26.7962 14.508 26.4441 14.508 25.9773V25.95C14.508 25.4341 13.8765 25.2403 13.147 25.0164L12.9864 24.9646C11.9847 24.678 10.9122 24.2631 10.9122 22.991V22.9665C10.9122 21.76 11.884 20.9165 13.2749 20.9165H13.4246C14.1892 20.9145 14.9407 21.1161 15.6022 21.5006C15.6332 21.5155 15.6577 21.5411 15.6712 21.5728C15.6847 21.6044 15.6863 21.6399 15.6757 21.6726C15.6512 21.7463 15.4035 22.4287 15.3681 22.5079C15.3137 22.6498 15.1667 22.5543 15.1667 22.5543C14.5695 22.2439 13.9093 22.0749 13.2368 22.0602C12.6461 22.0602 12.2678 22.3714 12.2678 22.7972V22.8245C12.2678 23.3213 12.9183 23.5342 13.6696 23.7799L13.8003 23.8209C14.7992 24.1375 15.8663 24.577 15.8663 25.7835L15.8635 25.8053ZM22.0833 27.5004C22.0833 27.5004 21.9254 27.5441 21.7839 27.5769C21.6424 27.6096 21.1224 27.7161 20.6951 27.787C20.2634 27.8605 19.8264 27.8971 19.3885 27.8962C19.0071 27.9001 18.6264 27.8617 18.2535 27.7816C17.9386 27.7148 17.6405 27.5848 17.377 27.3994C17.1376 27.2251 16.9457 26.9933 16.819 26.7252C16.6797 26.4169 16.6117 26.0809 16.6202 25.7425C16.6118 25.4104 16.6854 25.0813 16.8346 24.7846C16.9837 24.4879 17.2037 24.2327 17.475 24.042C17.746 23.8499 18.0494 23.7085 18.3705 23.6243C18.7151 23.5328 19.0702 23.4869 19.4266 23.4878C19.6988 23.4878 19.9248 23.4878 20.099 23.5069C20.099 23.5069 20.4365 23.5397 20.8067 23.5916V23.4087C20.8067 22.8354 20.6869 22.5652 20.4528 22.3823C20.1374 22.1794 19.7652 22.0836 19.3913 22.1094C18.7433 22.1136 18.1044 22.2628 17.5212 22.5461L17.4505 22.5816C17.4365 22.5867 17.4217 22.5889 17.407 22.588C17.3922 22.5872 17.3777 22.5833 17.3644 22.5767C17.3512 22.57 17.3394 22.5607 17.3299 22.5494C17.3203 22.538 17.3132 22.5248 17.3089 22.5106L17.0041 21.6917C16.9891 21.6632 16.9848 21.6302 16.9917 21.5987C16.9987 21.5673 17.0166 21.5393 17.0422 21.5197C17.4287 21.2168 18.3678 21.0339 18.3678 21.0339C18.7473 20.9682 19.1314 20.9326 19.5165 20.9274C20.3766 20.9274 21.0381 21.1294 21.4899 21.5252C21.9418 21.921 22.1732 22.5625 22.1732 23.436V27.3749C22.1708 27.4006 22.1611 27.4252 22.1452 27.4455C22.1292 27.4659 22.1077 27.4812 22.0833 27.4895V27.5004ZM24.9659 27.626C24.9667 27.6427 24.964 27.6594 24.9582 27.6751C24.9525 27.6908 24.9436 27.7052 24.9322 27.7174C24.9208 27.7296 24.907 27.7394 24.8918 27.7462C24.8766 27.753 24.8601 27.7567 24.8434 27.757H23.7056C23.689 27.7567 23.6725 27.753 23.6573 27.7462C23.642 27.7394 23.6283 27.7296 23.6169 27.7174C23.6055 27.7052 23.5966 27.6908 23.5908 27.6751C23.585 27.6594 23.5824 27.6427 23.5831 27.626V18.4352C23.5824 18.4185 23.585 18.4018 23.5908 18.3861C23.5966 18.3704 23.6055 18.3561 23.6169 18.3439C23.6283 18.3317 23.642 18.3219 23.6573 18.3151C23.6725 18.3082 23.689 18.3046 23.7056 18.3042H24.8434C24.8601 18.3046 24.8766 18.3082 24.8918 18.3151C24.907 18.3219 24.9208 18.3317 24.9322 18.3439C24.9436 18.3561 24.9525 18.3704 24.9582 18.3861C24.964 18.4018 24.9667 18.4185 24.9659 18.4352V27.626ZM32.0785 24.667C32.0752 24.6979 32.0605 24.7265 32.0374 24.7471C32.0142 24.7678 31.9843 24.7791 31.9533 24.779H27.6607C27.6852 25.4341 27.8431 25.8954 28.1588 26.212C28.5627 26.5691 29.0914 26.7508 29.6287 26.717C30.2318 26.7418 30.833 26.6337 31.3899 26.4004C31.4054 26.3943 31.422 26.3913 31.4387 26.3917C31.4553 26.3921 31.4718 26.3959 31.487 26.4028C31.5022 26.4096 31.5159 26.4195 31.5273 26.4317C31.5386 26.444 31.5475 26.4584 31.5532 26.4741L31.8254 27.263C31.8826 27.3967 31.8254 27.4431 31.79 27.4677C31.5178 27.6178 30.8672 27.8962 29.626 27.899C29.0951 27.9121 28.5664 27.827 28.0663 27.6478C27.6614 27.4997 27.2967 27.2587 27.0013 26.944C26.7059 26.6292 26.488 26.2496 26.365 25.8353C26.2336 25.3925 26.1685 24.9325 26.1718 24.4705C26.1691 24.0089 26.2324 23.5493 26.3596 23.1057C26.4761 22.6974 26.6732 22.3168 26.9394 21.9865C27.2098 21.6641 27.5482 21.4058 27.9302 21.2304C28.3776 21.0376 28.8615 20.9444 29.3484 20.9574C29.7704 20.956 30.1882 21.0415 30.576 21.2086C30.8886 21.3565 31.1668 21.5685 31.3926 21.8309C31.6436 22.1239 31.8292 22.4674 31.937 22.8382C32.1033 23.4289 32.1514 24.0467 32.0785 24.6561V24.667ZM35.6525 27.9099C34.8819 27.9294 34.1192 27.7508 33.4368 27.3912C33.291 27.3146 33.1501 27.2289 33.0149 27.1347C32.9986 27.1128 32.936 27.0883 32.9822 26.9654L33.2817 26.1301C33.2873 26.1102 33.2977 26.092 33.3119 26.077C33.3261 26.062 33.3437 26.0507 33.3632 26.044C33.3828 26.0373 33.4036 26.0354 33.424 26.0385C33.4444 26.0416 33.4637 26.0497 33.4804 26.0619C33.562 26.1138 33.6246 26.1574 33.7308 26.2202C34.3161 26.594 34.9967 26.7902 35.6906 26.7853C36.3494 26.7853 36.7604 26.4331 36.7604 25.9664V25.9391C36.7604 25.4232 36.1289 25.2294 35.3994 25.0055L35.2388 24.9537C34.2371 24.667 33.1646 24.2521 33.1646 22.9801V22.9555C33.1646 21.749 34.1364 20.9056 35.5273 20.9056H35.6798C36.4444 20.9035 37.1959 21.1051 37.8574 21.4897C37.8884 21.5046 37.9132 21.53 37.9272 21.5616C37.9411 21.5931 37.9434 21.6286 37.9336 21.6617L37.6233 22.497C37.5688 22.6389 37.4218 22.5434 37.4218 22.5434C36.8246 22.233 36.1644 22.0639 35.4919 22.0493C34.904 22.0493 34.5229 22.3605 34.5229 22.7863V22.8136C34.5229 23.3104 35.1735 23.5233 35.9247 23.769L36.0554 23.8099C37.0544 24.1266 38.1214 24.5661 38.1214 25.7726V25.8053C38.1023 27.0992 37.166 27.9099 35.6525 27.9099ZM43.1517 22.0875C43.147 22.1225 43.1298 22.1546 43.1032 22.1777C43.0767 22.2008 43.0426 22.2134 43.0074 22.2131H41.5947L40.6202 27.7161C40.5397 28.2089 40.414 28.6932 40.2446 29.1628C40.1224 29.5171 39.9329 29.8444 39.6866 30.1264C39.4708 30.3716 39.1977 30.5592 38.8917 30.6723C38.5526 30.7874 38.1962 30.8428 37.8383 30.8361C37.627 30.8422 37.4158 30.822 37.2095 30.776C37.0765 30.7467 36.9455 30.7084 36.8176 30.6614C36.8016 30.6549 36.7871 30.6452 36.7751 30.6328C36.763 30.6205 36.7536 30.6058 36.7475 30.5897C36.7414 30.5735 36.7386 30.5563 36.7394 30.539C36.7402 30.5218 36.7446 30.5049 36.7522 30.4894C36.7822 30.4048 37.0244 29.706 37.0707 29.6159C37.0761 29.601 37.0845 29.5873 37.0953 29.5756C37.1061 29.5639 37.119 29.5545 37.1335 29.5479C37.1479 29.5413 37.1635 29.5376 37.1794 29.5371C37.1952 29.5366 37.211 29.5393 37.2259 29.5449C37.2993 29.5806 37.3771 29.6063 37.4572 29.6214C37.5701 29.645 37.6849 29.6578 37.8002 29.6596C37.9718 29.6618 38.1426 29.637 38.3065 29.5859C38.4661 29.5295 38.6034 29.4233 38.6985 29.2829C38.8294 29.095 38.9304 28.8878 38.9979 28.6687C39.1121 28.3222 39.1985 27.9672 39.2565 27.6069L40.2173 22.2185H39.2701C39.1558 22.2185 39.1176 22.1667 39.1285 22.0793L39.2891 21.184C39.2943 21.1493 39.3117 21.1175 39.3382 21.0945C39.3646 21.0715 39.3984 21.0587 39.4334 21.0584H40.4079L40.4623 20.7691C40.5428 20.0442 40.8441 19.3617 41.3252 18.8147C41.5682 18.5876 41.8546 18.4124 42.1672 18.2998C42.4798 18.1871 42.812 18.1394 43.1435 18.1595C43.3387 18.1578 43.5336 18.1734 43.726 18.2059C43.8696 18.2303 44.0114 18.2641 44.1506 18.3069C44.1661 18.3109 44.1805 18.3181 44.193 18.328C44.2055 18.3379 44.2158 18.3503 44.2232 18.3645C44.2307 18.3786 44.2351 18.3942 44.2362 18.4101C44.2373 18.4261 44.235 18.442 44.2296 18.4571L43.9002 19.3606C43.873 19.4288 43.8539 19.4698 43.7151 19.4288C43.6427 19.4065 43.5691 19.3883 43.4946 19.3742C43.3792 19.35 43.2615 19.3381 43.1435 19.3388C42.9868 19.3365 42.8307 19.3586 42.6808 19.4043C42.5454 19.4501 42.4224 19.5267 42.3215 19.6281C42.1885 19.7575 42.0862 19.9151 42.022 20.0894C41.9196 20.4056 41.8432 20.7297 41.7934 21.0584H43.1544C43.2714 21.0584 43.3068 21.113 43.2959 21.1976L43.1517 22.0875ZM49.4368 25.7753C49.3238 26.1803 49.1271 26.5569 48.8597 26.8808C48.5947 27.1973 48.2615 27.4493 47.8852 27.6178C47.0129 27.9752 46.0356 27.9752 45.1632 27.6178C44.7873 27.4487 44.4542 27.1968 44.1888 26.8808C43.9231 26.5557 43.7267 26.1795 43.6117 25.7753C43.3654 24.8822 43.3654 23.9388 43.6117 23.0456C43.7267 22.6415 43.9231 22.2652 44.1888 21.9401C44.4547 21.6232 44.7875 21.3696 45.1632 21.1976C45.5945 21.0175 46.057 20.9247 46.5242 20.9247C46.9914 20.9247 47.454 21.0175 47.8852 21.1976C48.2614 21.3689 48.5944 21.6226 48.8597 21.9401C49.1263 22.2646 49.3229 22.641 49.4368 23.0456C49.6867 23.9383 49.6867 24.8827 49.4368 25.7753V25.7753ZM54.7447 21.2768C54.7039 21.3942 54.497 21.9865 54.4235 22.1831C54.3936 22.2568 54.3473 22.3086 54.2656 22.2977C54.1109 22.2634 53.9532 22.2442 53.7947 22.2404C53.5995 22.2408 53.4053 22.2684 53.2177 22.3223C53.0178 22.3846 52.8358 22.4942 52.6869 22.6416C52.5148 22.821 52.3863 23.0377 52.3112 23.2749C52.207 23.6422 52.1592 24.0233 52.1697 24.405V27.6151C52.169 27.6496 52.155 27.6825 52.1306 27.707C52.1063 27.7314 52.0735 27.7454 52.039 27.7461H50.8958C50.8616 27.7454 50.8291 27.7313 50.8051 27.7068C50.7812 27.6823 50.7678 27.6494 50.7678 27.6151V21.1895C50.7671 21.1729 50.7697 21.1563 50.7756 21.1408C50.7814 21.1252 50.7903 21.111 50.8017 21.0991C50.8132 21.0871 50.8269 21.0775 50.8422 21.071C50.8574 21.0645 50.8738 21.0611 50.8903 21.0612H51.9791C51.9959 21.0608 52.0126 21.0639 52.0282 21.0702C52.0437 21.0765 52.0578 21.086 52.0695 21.0981C52.0813 21.1101 52.0904 21.1244 52.0964 21.1401C52.1024 21.1559 52.1051 21.1726 52.1044 21.1895V21.7108C52.2989 21.4737 52.5472 21.2865 52.8284 21.1649C53.1752 21.0073 53.5578 20.9461 53.9363 20.9875C54.1792 21.0048 54.4199 21.046 54.6549 21.1103C54.6729 21.113 54.69 21.12 54.7048 21.1307C54.7196 21.1414 54.7316 21.1554 54.7399 21.1717C54.7481 21.188 54.7524 21.2061 54.7523 21.2243C54.7522 21.2426 54.7477 21.2606 54.7393 21.2768H54.7447ZM60.1152 27.555C59.5399 27.7676 58.9318 27.8766 58.3187 27.8771C57.2299 27.8771 56.3752 27.5578 55.8145 26.9299C55.2537 26.3021 54.9706 25.4532 54.9706 24.3995C54.967 23.9365 55.0368 23.4758 55.1775 23.0347C55.3062 22.6278 55.5164 22.2516 55.7954 21.9292C56.0793 21.6107 56.4284 21.3575 56.8189 21.1867C57.2656 20.9977 57.7468 20.9047 58.2316 20.9138C58.5504 20.9109 58.8689 20.9329 59.1843 20.9793C59.4712 21.0257 59.7535 21.0969 60.0281 21.1922C60.0436 21.1962 60.058 21.2034 60.0706 21.2133C60.0832 21.2231 60.0937 21.2355 60.1013 21.2496C60.109 21.2636 60.1137 21.2791 60.1151 21.2951C60.1166 21.311 60.1148 21.3271 60.1098 21.3423C59.99 21.6835 59.9084 21.9019 59.7968 22.2131C59.7478 22.3441 59.6498 22.3004 59.6498 22.3004C59.2156 22.1644 58.7626 22.099 58.3078 22.1066C58.0406 22.0891 57.7731 22.1365 57.5281 22.2449C57.2831 22.3532 57.0678 22.5193 56.9005 22.729C56.5581 23.2184 56.3867 23.8077 56.4133 24.405C56.4133 25.1966 56.6093 25.7698 56.9577 26.1438C57.1489 26.3302 57.3765 26.475 57.6262 26.569C57.8758 26.6629 58.1422 26.704 58.4085 26.6897C58.6408 26.6909 58.8728 26.6745 59.1026 26.6406C59.3049 26.6053 59.5029 26.5485 59.6933 26.4714C59.7088 26.4649 59.7254 26.4618 59.7422 26.4622C59.7589 26.4626 59.7754 26.4666 59.7905 26.4738C59.8057 26.481 59.8191 26.4913 59.8301 26.504C59.841 26.5168 59.8491 26.5317 59.8539 26.5478L60.1669 27.4131C60.1774 27.4404 60.1774 27.4706 60.1668 27.4979C60.1563 27.5252 60.1359 27.5475 60.1098 27.5605L60.1152 27.555ZM66.4711 24.6507C66.4684 24.6813 66.4543 24.7098 66.4316 24.7306C66.4089 24.7513 66.3793 24.7627 66.3486 24.7626H62.056C62.0832 25.4177 62.2384 25.879 62.5569 26.1957C62.9599 26.5523 63.4876 26.7339 64.024 26.7006C64.628 26.7257 65.2301 26.6176 65.7879 26.384C65.8032 26.3779 65.8196 26.375 65.8361 26.3755C65.8526 26.3759 65.8688 26.3797 65.8838 26.3866C65.8988 26.3934 65.9123 26.4033 65.9234 26.4155C65.9345 26.4277 65.943 26.4421 65.9485 26.4577L66.2207 27.2466C66.2751 27.3803 66.2207 27.4267 66.1826 27.4513C65.9104 27.6014 65.2625 27.8799 64.0213 27.8826C63.4904 27.8957 62.9617 27.8106 62.4616 27.6315C62.056 27.4845 61.6907 27.2438 61.3951 26.9289C61.0996 26.614 60.8821 26.2338 60.7603 25.819C60.6267 25.3765 60.5606 24.9164 60.5644 24.4541C60.5626 23.9924 60.6267 23.5328 60.7549 23.0893C60.8702 22.6806 61.0675 22.2998 61.3347 21.9701C61.6046 21.6483 61.942 21.3902 62.3228 21.214C62.7702 21.0212 63.2541 20.928 63.7409 20.9411C64.1639 20.9394 64.5827 21.0248 64.9713 21.1922C65.2839 21.3401 65.5621 21.5521 65.7879 21.8146C66.0399 22.1068 66.2257 22.4505 66.3323 22.8218C66.501 23.4177 66.5464 24.042 66.4657 24.6561L66.4711 24.6507Z" fill="#48455E"/>
</g>
<defs>
<clipPath id="clip0_4166:8250">
<rect width="74.0822" height="52" fill="white"/>
</clipPath>
</defs>
</svg>
